<?xml version="1.0" encoding="utf-8"?>
<!-- Generator: Adobe Illustrator 24.3.0, SVG Export Plug-In . SVG Version: 6.00 Build 0)  -->
<svg version="1.1"
	 id="svg2" xmlns:cc="http://creativecommons.org/ns#" xmlns:dc="http://purl.org/dc/elements/1.1/" xmlns:rdf="http://www.w3.org/1999/02/22-rdf-syntax-ns#" xmlns:svg="http://www.w3.org/2000/svg"
	 xmlns="http://www.w3.org/2000/svg" xmlns:xlink="http://www.w3.org/1999/xlink" x="0px" y="0px" viewBox="0 0 487 265"
	 style="enable-background:new 0 0 487 265;" xml:space="preserve">
<style type="text/css">
	.st0{stroke:#000000;stroke-miterlimit:10;}
	.st1{fill:none;}
	.st2{fill:#FFFFFF;}
	.st3{font-family:'GillSans-SemiBoldItalic';}
	.st4{font-size:91px;}
	.st5{font-family:'GillSans-Light';}
	.st6{font-size:77px;}
	.st7{fill:#4899C3;}
</style>
<g id="layer1">
	<g id="g5527" transform="matrix(8.2026 0 0 8.2088 -5143.4 -1542.1)">
		<g id="g5517" transform="translate(39.643 1.0714)">
			<path id="path5515_2_" class="st0" d="M607.3,210.1"/>
			<path id="path5515_1_" class="st0" d="M603.9,214"/>
		</g>
		<g id="g5521" transform="matrix(.48770 0 0 .48770 340.19 95.598)">
			<path id="path5525_2_" class="st0" d="M596.5,204.6"/>
			<path id="path5525_1_" class="st0" d="M593.1,208.6"/>
		</g>
	</g>
</g>
<rect x="160.4" y="61.2" class="st1" width="257" height="88"/>
<text transform="matrix(1 0 0 1 160.4355 123.2344)"><tspan x="0" y="0" class="st2 st3 st4">T</tspan><tspan x="50.9" y="0" class="st2 st5 st6">ext</tspan></text>
<path id="path5502_1_" class="st7" d="M175.8,178.7c0,41.7-33.8,75.5-75.4,75.5c-41.6,0-75.4-33.8-75.4-75.5
	c0-60.8,43.6-53.6,76.5-152C108,7.4,177.5,129.9,175.8,178.7L175.8,178.7z"/>
<rect x="200.7" y="139.3" class="st1" width="257" height="88"/>
<text transform="matrix(1 0 0 1 200.7104 201.3484)"><tspan x="0" y="0" class="st2 st3 st4">E</tspan><tspan x="51.2" y="0" class="st2 st5 st6">ssence</tspan></text>
</svg>
