<svg id="Layer_1" data-name="Layer 1" xmlns="http://www.w3.org/2000/svg" viewBox="0 0 552.55 545.92"><defs><style>.cls-1,.cls-2,.cls-3{fill:#fff;}.cls-1,.cls-4{stroke:#4d4d4d;}.cls-1,.cls-2,.cls-4{stroke-miterlimit:10;}.cls-1{stroke-width:10px;}.cls-2{stroke:#000;}.cls-4{fill:none;stroke-width:26px;}.cls-5{fill:#4d4d4d;}</style></defs><polyline class="cls-1" points="5 127 5 421.5 242 421.5 242 196.5 170 196.5 170 127.5 5.5 127.5"/><line class="cls-1" x1="170" y1="127.5" x2="242" y2="196.5"/><path class="cls-2" d="M47,159.23" transform="translate(-41.5 -31)"/><polyline class="cls-1" points="310.55 129.11 310.55 423.61 547.55 423.61 547.55 198.61 475.55 198.61 475.55 129.61 311.05 129.61"/><line class="cls-1" x1="475.55" y1="129.61" x2="547.55" y2="198.61"/><path class="cls-3" d="M143,134.09C151.74,98.89,150.86,44,309,44c161,0,150,71,154.28,90.4" transform="translate(-41.5 -31)"/><path class="cls-4" d="M143,134.09C151.74,98.89,150.86,44,309,44c107.64,0,138.4,31.74,148.24,58.57" transform="translate(-41.5 -31)"/><polygon class="cls-5" points="477.35 46.98 421.78 103.4 346.96 77.48 346.86 77.05 477.25 46.56 477.35 46.98"/><path class="cls-3" d="M483.43,476.21c-9.26,35.07-9.18,90-167.31,87.63-161-2.37-148.94-73.2-152.93-92.66" transform="translate(-41.5 -31)"/><path class="cls-4" d="M483.43,476.21c-9.26,35.07-9.18,90-167.31,87.63-107.63-1.58-137.92-33.77-147.36-60.75" transform="translate(-41.5 -31)"/><polygon class="cls-5" points="65.3 495.76 121.69 440.18 196.12 467.2 196.21 467.63 65.39 496.19 65.3 495.76"/></svg>